<svg xmlns="http://www.w3.org/2000/svg" viewBox="0 0 64 64" fill="none">
  <!-- Background rounded square -->
  <rect width="64" height="64" rx="14" fill="#1C1715"/>

  <!-- Cup body -->
  <path
    d="M16 22h28l-3.5 20a3 3 0 0 1-2.97 2.5H22.47A3 3 0 0 1 19.5 42L16 22Z"
    fill="none"
    stroke="#F59E0B"
    stroke-width="2.2"
    stroke-linejoin="round"
  />

  <!-- Saucer -->
  <path
    d="M13 46.5h34"
    stroke="#F59E0B"
    stroke-width="2.2"
    stroke-linecap="round"
  />

  <!-- Handle -->
  <path
    d="M44 27c4 0 7 2 7 6s-3 6-7 6"
    fill="none"
    stroke="#F59E0B"
    stroke-width="2.2"
    stroke-linecap="round"
  />

  <!-- Steam lines -->
  <path
    d="M26 17c0-2 2-2 2-4"
    stroke="#FBBF24"
    stroke-width="1.8"
    stroke-linecap="round"
    opacity="0.7"
  />
  <path
    d="M32 15c0-2 2-2 2-4"
    stroke="#FBBF24"
    stroke-width="1.8"
    stroke-linecap="round"
    opacity="0.7"
  />
  <path
    d="M38 17c0-2 2-2 2-4"
    stroke="#FBBF24"
    stroke-width="1.8"
    stroke-linecap="round"
    opacity="0.7"
  />

  <!-- Subtle amber glow dot (inner reflection) -->
  <circle cx="30" cy="32" r="3" fill="#F59E0B" opacity="0.08"/>
</svg>